<?xml version="1.0" encoding="UTF-8" standalone="no"?>
<svg
   xmlns:dc="http://purl.org/dc/elements/1.1/"
   xmlns:cc="http://creativecommons.org/ns#"
   xmlns:rdf="http://www.w3.org/1999/02/22-rdf-syntax-ns#"
   xmlns:svg="http://www.w3.org/2000/svg"
   xmlns="http://www.w3.org/2000/svg"
   xmlns:sodipodi="http://sodipodi.sourceforge.net/DTD/sodipodi-0.dtd"
   xmlns:inkscape="http://www.inkscape.org/namespaces/inkscape"
   height="32"
   id="Layer_1"
   version="1.1"
   viewBox="0 0 32 32"
   width="32"
   xml:space="preserve"
   sodipodi:docname="github-icon.svg"
   inkscape:version="0.92.3 (2405546, 2018-03-11)"><metadata
     id="metadata9"><rdf:RDF><cc:Work
         rdf:about=""><dc:format>image/svg+xml</dc:format><dc:type
           rdf:resource="http://purl.org/dc/dcmitype/StillImage" /><dc:title /></cc:Work></rdf:RDF></metadata><defs
     id="defs7" /><sodipodi:namedview
     pagecolor="#ffffff"
     bordercolor="#666666"
     borderopacity="1"
     objecttolerance="10"
     gridtolerance="10"
     guidetolerance="10"
     inkscape:pageopacity="0"
     inkscape:pageshadow="2"
     inkscape:window-width="1920"
     inkscape:window-height="1029"
     id="namedview5"
     showgrid="false"
     inkscape:zoom="3.5223881"
     inkscape:cx="-62.457626"
     inkscape:cy="33.5"
     inkscape:window-x="0"
     inkscape:window-y="0"
     inkscape:window-maximized="1"
     inkscape:current-layer="Layer_1" /><path
     style="fill:#69499e;fill-opacity:1;stroke-width:0.94121945"
     d="M 25.843132,2.2299623e-4 C 24.57152,0.01878104 22.334061,1.1696596 21.037766,2.0113449 18.624479,1.3176668 13.522526,1.3839779 11.609027,2.1896614 8.0785126,-0.29421669 6.2098836,0.08662411 6.2098836,0.08662411 c 0,0 -1.2083794,2.12570059 -0.3198679,5.23737249 C 4.72855,6.7791219 3.8623489,7.8088744 3.8623489,10.537469 c 9.414e-4,1.537954 0.1860532,2.915001 0.6011305,4.115997 -0.050821,0 0.5566141,1.286824 0.5735559,1.286824 1.3271196,2.368108 3.8852506,3.839867 8.2007417,4.248356 -0.615557,0.459316 -1.355194,1.331237 -1.457787,2.338342 -0.774624,0.492258 -2.3320336,0.654971 -3.5424416,0.279425 -1.6970182,-0.526142 -2.3459008,-3.827382 -4.8862527,-3.356772 -0.5496721,0.100716 -0.4403869,0.457051 0.034929,0.761064 0.7746231,0.492258 1.5025242,1.109948 2.0644319,2.421067 0.4320201,1.007105 1.3390313,2.805276 4.2097508,2.805276 1.1388765,0 1.9375895,-0.134198 1.9375895,-0.134199 0,0 0.02206,2.570442 0.02206,3.570017 0,1.152994 -1.582793,1.476964 -1.582793,2.031342 0,0.219305 0.524171,0.240821 0.944896,0.240821 0.832038,0 2.562617,-0.682428 2.562617,-1.880601 0,-0.951573 0.0147,-4.150646 0.0147,-4.711612 0,-1.223585 0.669148,-1.612206 0.669148,-1.612206 0,0 0.08196,6.53121 -0.159933,7.408426 -0.284248,1.029695 -0.79783,0.884497 -0.79783,1.343812 0,0.683325 2.085006,0.168463 2.775861,-1.332782 0.533672,-1.166171 0.299647,-7.577552 0.299647,-7.577552 l 0.569878,-0.01103 c 0,0 0.03079,2.934693 0.01103,4.275931 -0.01977,1.38924 -0.11527,3.144334 0.724299,3.972608 0.551552,0.544966 2.338341,1.500319 2.338341,0.626867 0,-0.507318 -0.979824,-0.922822 -0.979824,-2.296061 v -6.320143 c 0.782154,0 0.665471,2.0773 0.665471,2.0773 l 0.05699,3.862309 c 0,0 -0.173625,1.406315 1.547865,1.994577 0.607086,0.209891 1.90766,0.266512 1.96884,-0.08456 0.06118,-0.351075 -1.565895,-0.873437 -1.580954,-1.961487 -0.0094,-0.665442 0.03125,-1.053696 0.03125,-3.941357 0,-2.887661 -0.39518,-3.954503 -1.770302,-4.805366 4.243017,-0.428254 6.870152,-1.46014 8.14927,-4.22262 0.09977,0.0028 0.522465,-1.2905 0.466932,-1.2905 0.287073,-1.042871 0.442329,-2.27653 0.472448,-3.737303 C 29.010406,6.9591443 27.080712,5.5572562 26.710815,4.8993445 27.256721,1.8996779 26.618473,0.53512986 26.322929,0.06640292 26.186217,0.01863315 26.024786,-0.00242428 25.843127,2.209134e-4 Z"
     id="rect819"
     inkscape:connector-curvature="0" /></svg>