<?xml version="1.0" encoding="UTF-8"?>
<!-- Generator: Adobe Illustrator 16.0.0, SVG Export Plug-In . SVG Version: 6.00 Build 0)  -->
<!DOCTYPE svg PUBLIC "-//W3C//DTD SVG 1.1//EN" "http://www.w3.org/Graphics/SVG/1.1/DTD/svg11.dtd">
<svg version="1.1" id="Layer_1" xmlns="http://www.w3.org/2000/svg" xmlns:xlink="http://www.w3.org/1999/xlink" x="0px" y="0px" width="181.334px" height="111px" viewBox="0 0 181.334 111" enable-background="new 0 0 181.334 111" xml:space="preserve">
<g>
	<g>
		<g>
			<path fill="#FFFFFF" d="M19.223,36.745c2.352,4.874,4.96,9.819,4.789,15.374c-0.12,3.878-2.992,5.023-6.304,5.129     c-4.22,0.133-4.252-5.738-1.078-3.959c2.816,1.578,5.336-2.741,2.523-4.317c-4.372-2.45-9.117-0.642-9.882,4.56     c-0.806,5.479,3.555,8.471,8.437,8.716c5.808,0.292,10.375-3.032,11.144-8.904c0.895-6.828-2.435-13.16-5.311-19.122     C22.14,31.318,17.829,33.855,19.223,36.745L19.223,36.745z"/>
		</g>
	</g>
	<g>
		<g>
			<path fill="#FFFFFF" d="M46.757,37.154c-5.315-3.251-10.207-4.111-13.82,1.92c-2.94,4.906-2.463,11.315,1.849,15.046     c9.046,7.827,13.598-6.704,14.662-13.223c0.509-3.119-3.899-4.486-4.821-1.329c-2.301,7.874,5.139,12.236,12.131,12.129     c3.221-0.049,3.226-5.049,0-5c-3.561,0.054-8.633-1.271-7.31-5.8c-1.607-0.443-3.214-0.886-4.821-1.329     c-0.556,3.408-1.148,9.202-4.14,11.434c-2.71,2.022-4.385-3.971-4.318-5.542c0.069-1.621,0.714-3.575,1.72-4.851     c2.016-2.554,4.488-0.274,6.346,0.862C46.992,43.159,49.502,38.833,46.757,37.154L46.757,37.154z"/>
		</g>
	</g>
	<g>
		<g>
			<path fill="#FFFFFF" d="M58.29,37.316c-0.9,4.107,0.073,9.431,4.104,11.567c2.847,1.509,5.374-2.807,2.523-4.317     c-1.964-1.041-2.235-3.964-1.806-5.921C63.8,35.503,58.98,34.167,58.29,37.316L58.29,37.316z"/>
		</g>
	</g>
	<g>
		<g>
			<path fill="#FFFFFF" d="M73.626,43.368c-1.339-1.149-1.823-3.156-2.012-4.849c-0.114-1.025,0.035-1.946,0.506-2.87     c-1.39-0.18-1.719,0.05-0.987,0.692c0.522,0.745,0.815,1.627,1.108,2.477c0.734,2.126,4.362,2.632,4.821,0     c0.205-1.174,1.606-7.336,3.466-6.434c1.932,0.938,0.13,7.999,0.045,10.14c-0.128,3.226,4.873,3.213,5,0     c0.192-4.852,2.766-12.921-3.629-14.957c-5.859-1.866-8.908,5.362-9.703,9.921c1.607,0,3.214,0,4.821,0     c-1.378-3.995-5.405-9.58-9.259-4.363c-2.707,3.665-0.965,10.986,2.288,13.778C72.523,48.991,76.077,45.471,73.626,43.368     L73.626,43.368z"/>
		</g>
	</g>
	<g>
		<g>
			<path fill="#FFFFFF" d="M91.382,37.565c3.915,0.432,8.064-1.262,11.563-2.833c2.707-1.215,4.425-3.059,3.041-6.1     c-2.547-5.6-10.897-8.021-15.21-3.16c-5.009,5.646-3.745,15.446,3.312,18.613c5.785,2.596,12.988,0.066,13.296-6.882     c0.144-3.225-4.856-3.211-5,0c-0.142,3.189-3.595,3.275-5.96,2.474c-4.398-1.49-4.219-6.83-2.38-10.223     c1.72-3.171,5.835-1.242,7.34,1.13c0.404,0.638,1.755-1.644,0.341-0.823c-0.941,0.546-1.965,0.955-2.979,1.344     c-2.303,0.885-4.87,1.733-7.362,1.458C88.179,32.211,88.213,37.215,91.382,37.565L91.382,37.565z"/>
		</g>
	</g>
	<g>
		<g>
			<path fill="#FFFFFF" d="M124.048,24.797c-3.234-3.181-8.186-5.409-12.264-2.292c-2.979,2.277-4.576,6.925-2.086,10.161     c1.418,1.843,3.363,2.505,5.604,2.778c1.504,0.183,2.998-0.42,4.383-0.913c0.371-0.131,1.506-0.13,1.135-0.652     c0.349,0.49,0.275,1.358,0.285,1.918c0.043,2.299-0.483,3.011-2.744,3.311c-0.977,0.129-5.076,0.405-5.162-1.214     c-0.17-3.207-5.172-3.224-5,0c0.301,5.667,6.76,6.86,11.349,6.056c2.14-0.375,4.38-1.185,5.507-3.167     c1.289-2.268,1.268-5.469,0.703-7.929c-0.688-2.995-3.342-4.005-6.109-3.533c-1.649,0.281-4.735,2.324-6.029,0.25     c-0.563-0.901,0.266-2.422,0.994-2.979c2.06-1.573,4.406,0.274,5.9,1.743C122.813,30.594,126.351,27.061,124.048,24.797     L124.048,24.797z"/>
		</g>
	</g>
	<g>
		<g>
			<path fill="#FFFFFF" d="M139.457,20.316c-2.224-0.382-4.368-1.051-6.626-0.585c-2.688,0.555-4.23,3.519-5.186,5.781     c-2.328,5.519,1.791,11.799,7.535,12.461c5.991,0.691,9.721-4.914,10.405-10.242c0.794-6.175-4.293-7.76-9.377-8.251     c-3.209-0.311-3.181,4.692,0,5c1.483,0.144,4.423,0.028,4.493,1.99c0.086,2.375-1.518,6.307-4.229,6.584     c-3.633,0.371-4.923-3.395-4.008-6.213c1.033-3.188,3.123-2.14,5.659-1.704C141.28,25.679,142.63,20.861,139.457,20.316     L139.457,20.316z"/>
		</g>
	</g>
	<g>
		<g>
			<path fill="#FFFFFF" d="M153.983,32.462c1.361-5.331-0.928-10.489-3.213-15.219c-1.08-2.234-4.795-1.166-4.658,1.262     c0.267,4.754,2.596,8.881,3.812,13.407c0.632,2.35,4.234,2.43,4.822,0c0.528-2.193,0.465-4.406,0.349-6.642     c-0.097-1.875-0.488-4.231,0.498-5.931c1.178-2.023,5.104,0.146,5.867,1.504c1.169,2.077,0.618,5.34,0.284,7.561     c-0.474,3.153,4.344,4.509,4.821,1.329c0.588-3.904,0.859-7.728-0.789-11.414c-1.616-3.614-6.215-5.002-9.848-4.392     c-8.527,1.432-4.638,10.999-6.006,16.656c1.607,0,3.215,0,4.822,0c-1.081-4.021-3.396-7.871-3.635-12.078     c-1.553,0.42-3.104,0.841-4.657,1.262c1.653,3.425,3.7,7.479,2.708,11.367C148.364,34.259,153.188,35.584,153.983,32.462     L153.983,32.462z"/>
		</g>
	</g>
	<g>
		<g>
			<path fill="#FFFFFF" d="M36.837,68.829c0.435,5.022,0.678,10.03,2.012,14.915c0.776,2.84,2.614,8.251,5.897,9.218     c6.045,1.778,7.75-9.058,8.99-12.741c-1.393,0.367-2.786,0.734-4.178,1.103c2.927,3.6,10.182,10.45,14.939,5.334     c6.588-7.087,2.392-18.38-2.563-25.074c-1.896-2.562-6.238-0.071-4.317,2.522c3.465,4.682,6.134,10.281,4.794,16.235     c-1.466,6.515-7.255-0.017-9.317-2.553c-1.27-1.563-3.637-0.509-4.178,1.103c-0.619,1.842-1.196,3.696-1.803,5.543     c-0.224,0.674-0.464,1.342-0.721,2.004c-0.167,0.362-0.333,0.724-0.5,1.086c-0.531,0.914-0.524,0.903,0.019-0.029     c-3.672-5.28-3.542-12.536-4.073-18.665C41.561,65.643,36.559,65.615,36.837,68.829L36.837,68.829z"/>
		</g>
	</g>
	<g>
		<g>
			<path fill="#FFFFFF" d="M85.117,59.844c-6.529-2.695-11.285-1.898-13.959,5.217c-2.279,6.063-1.142,13.748,4.274,17.514     c11.792,8.197,13.385-13.041,13.353-19.596c-0.016-3.312-4.622-3.111-5,0c-0.895,7.354,3.106,18.242,12.321,16.23     c3.149-0.688,1.813-5.507-1.33-4.82c-5.644,1.23-6.418-7.892-5.991-11.41c-1.667,0-3.333,0-5,0     c0.014,2.933-0.062,5.883-0.457,8.793c-0.257,1.894-0.715,6.506-2.894,7.314c-1.254,0.466-3.482-1.338-4.105-2.202     c-1.195-1.657-1.103-4.267-1.081-6.192c0.025-2.311,0.644-4.352,1.743-6.355c1.404-2.559,4.903-0.452,6.797,0.33     C86.768,65.896,88.054,61.057,85.117,59.844L85.117,59.844z"/>
		</g>
	</g>
	<g>
		<g>
			<path fill="#FFFFFF" d="M97.405,58.508c-0.953,6.959-0.553,20.148,8.55,21.317c10.207,1.311,11.472-16.388,10.131-22.767     c-0.579-2.751-5.103-2.15-4.911,0.664c0.459,6.75,4.254,15.342,12.381,13.469c3.141-0.724,1.809-5.543-1.33-4.82     c-4.369,1.006-5.836-5.497-6.051-8.648c-1.637,0.223-3.273,0.443-4.91,0.666c0.916,4.357,0.553,14.625-4.479,16.348     c-4.842,1.656-4.896-12.446-4.561-14.899C102.658,56.686,97.84,55.325,97.405,58.508L97.405,58.508z"/>
		</g>
	</g>
	<g>
		<g>
			<path fill="#FFFFFF" d="M137.317,46.217c-9.303,1.482-17.039,18.646-7.309,24.344c5.391,3.154,10.969-1.597,13.143-6.217     c2.634-5.6,3.914-14.267-0.4-19.354c-1.852-2.184-5.426,0.653-3.926,3.029c4.189,6.641,8.572,18.781,5.145,26.426     c-1.889,4.207-16.369,7.861-15.216,0.547c0.496-3.153-4.321-4.508-4.821-1.329c-2.027,12.866,12.971,11.481,20.558,6.938     c11.036-6.609,3.901-26.789-1.349-35.106c-1.309,1.01-2.617,2.02-3.926,3.029c3.333,3.93-1.113,22.221-7.172,17.428     c-2.137-1.691-1.186-5.794-0.561-7.935c1.018-3.476,3.51-6.399,7.164-6.981C141.825,50.532,140.472,45.714,137.317,46.217     L137.317,46.217z"/>
		</g>
	</g>
	<g>
		<g>
			<path fill="#FFFFFF" d="M147.278,44.145c5.035,7.529,2.89,16.958,6.598,25.07c0.961,2.104,3.969,1.275,4.568-0.597     c1.479-4.599-2.799-17.284,6.09-15.527c4.484,0.886,4.811,9.548,4.367,12.949c-0.416,3.19,4.589,3.149,5,0     c0.842-6.458-1.324-16.443-8.799-17.92c-3.649-0.721-8.783,1.247-10.506,4.604c-2.334,4.551,0.51,9.952-0.975,14.566     c1.523-0.199,3.047-0.397,4.568-0.597c-3.754-8.215-1.36-17.244-6.598-25.07C149.813,38.957,145.479,41.457,147.278,44.145     L147.278,44.145z"/>
		</g>
	</g>
	<g>
		<g>
			<path fill="#FFFFFF" d="M60.071,16.609c-2.544,0.739-5.336,1.603-7.063,3.745c-1.848,2.293-1.825,5.309-1.141,8.045     c1.538,6.148,8.976,6.369,13.701,3.983c3.999-2.019,4.807-6.689,3.133-10.485c-1.801-4.084-6.646-5.553-10.697-4.525     c-3.124,0.792-1.798,5.615,1.329,4.821c3.21-0.815,7.359,2.742,4.23,5.567c-1.724,1.557-6.061,1.813-6.875-0.691     c-1.229-3.781,1.656-4.751,4.711-5.64C64.49,20.533,63.174,15.708,60.071,16.609L60.071,16.609z"/>
		</g>
	</g>
	<g>
		<g>
			<path fill="#FFFFFF" d="M75.263,24.101c15.617-2.824,31.854-3.979,47.201-7.999c3.085-0.808,6.092-1.256,9.104-2.364     c4.332-1.592,6.25,0.434,10.209,1.454c6.1,1.571,12.193-5.857,18.195-6.332c3.191-0.253,3.217-5.254,0-5     c-2.609,0.207-4.838,0.848-7.24,1.865c-4.4,1.862-7.998,5.889-13.198,3.166c-5.249-2.749-11.556,0.954-16.89,2.029     c-16.147,3.256-32.488,5.426-48.709,8.359C70.765,19.853,72.111,24.67,75.263,24.101L75.263,24.101z"/>
		</g>
	</g>
	<g>
		<g>
			<path fill="#FFFFFF" d="M5.481,36.247c5.948,1.373,12.867-0.697,18.753-1.712c7.543-1.3,15.029-2.915,22.465-4.724     c3.132-0.762,1.803-5.583-1.329-4.821c-6.202,1.509-12.433,2.854-18.704,4.043c-5.888,1.116-13.941,3.757-19.856,2.392     C3.672,30.701,2.34,35.522,5.481,36.247L5.481,36.247z"/>
		</g>
	</g>
	<g>
		<g>
			<path fill="#FFFFFF" d="M154.875,80.669c6.035-1.385,12.065-2.774,18.181-3.78c3.174-0.523,1.822-5.342-1.33-4.822     c-6.113,1.008-12.145,2.396-18.181,3.781C150.403,76.568,151.735,81.389,154.875,80.669L154.875,80.669z"/>
		</g>
	</g>
	<g>
		<g>
			<path fill="#FFFFFF" d="M17.897,104.357c7.364,1.406,14.457-2.112,21.541-3.744c8.928-2.057,18.088-2.981,27.09-4.648     c9.267-1.717,18.036-5.181,27.206-7.266c8.664-1.971,17.81-0.879,26.606-2.366c3.175-0.537,1.823-5.354-1.33-4.821     c-7.661,1.295-15.381,0.521-23.009,1.725c-8.666,1.367-16.845,4.644-25.334,6.748c-8.433,2.091-17.14,3.01-25.693,4.461     c-3.988,0.678-7.934,1.546-11.846,2.572c-4.556,1.198-9.088,3.438-13.901,2.518C16.076,98.934,14.732,103.751,17.897,104.357     L17.897,104.357z"/>
		</g>
	</g>
</g>
</svg>