<?xml version="1.0" encoding="UTF-8" standalone="no"?>
<svg
   xmlns:dc="http://purl.org/dc/elements/1.1/"
   xmlns:cc="http://creativecommons.org/ns#"
   xmlns:rdf="http://www.w3.org/1999/02/22-rdf-syntax-ns#"
   xmlns:svg="http://www.w3.org/2000/svg"
   xmlns="http://www.w3.org/2000/svg"
   xmlns:sodipodi="http://sodipodi.sourceforge.net/DTD/sodipodi-0.dtd"
   xmlns:inkscape="http://www.inkscape.org/namespaces/inkscape"
   height="32"
   id="Layer_1"
   version="1.1"
   viewBox="0 0 32 32"
   width="32"
   xml:space="preserve"
   sodipodi:docname="linkedin-icon.svg"
   inkscape:version="0.92.3 (2405546, 2018-03-11)"><metadata
     id="metadata9"><rdf:RDF><cc:Work
         rdf:about=""><dc:format>image/svg+xml</dc:format><dc:type
           rdf:resource="http://purl.org/dc/dcmitype/StillImage" /><dc:title /></cc:Work></rdf:RDF></metadata><defs
     id="defs7" /><sodipodi:namedview
     pagecolor="#ffffff"
     bordercolor="#666666"
     borderopacity="1"
     objecttolerance="10"
     gridtolerance="10"
     guidetolerance="10"
     inkscape:pageopacity="0"
     inkscape:pageshadow="2"
     inkscape:window-width="1920"
     inkscape:window-height="1029"
     id="namedview5"
     showgrid="false"
     inkscape:zoom="3.5223881"
     inkscape:cx="-62.457626"
     inkscape:cy="33.5"
     inkscape:window-x="0"
     inkscape:window-y="0"
     inkscape:window-maximized="1"
     inkscape:current-layer="Layer_1" /><path
     style="fill:#69499e;fill-opacity:1;stroke-width:1.01029527"
     d="M 3.8813589,0.7065 C 1.535448,0.7065 0,2.2474959 0,4.2721221 0,6.2533057 1.490094,7.8377443 3.792563,7.8377443 h 0.04341 c 2.3913749,0 3.8813589,-1.5844386 3.8813589,-3.5656222 C 7.672882,2.2485058 6.2272689,0.7065 3.8813569,0.7065 Z m 20.2237161,9.4636 c -3.641113,0 -5.272887,2.00442 -6.182155,3.409737 v -2.924324 h -6.860948 c 0.09093,1.936731 0,20.636014 0,20.636014 H 17.92292 V 19.767878 c 0,-0.615268 0.0431,-1.23281 0.22495,-1.673297 0.495046,-1.232557 1.623973,-2.507972 3.518282,-2.507972 2.483312,0 3.476846,1.891456 3.476846,4.66471 V 31.2935 H 32 v -0.002 -11.831473 c 0,-6.339592 -3.382935,-9.289961 -7.894925,-9.289961 z M 0.406487,10.655513 V 31.291527 H 7.2654619 V 10.655513 Z"
     id="rect819"
     inkscape:connector-curvature="0" /></svg>