<?xml version="1.0" encoding="UTF-8" standalone="no"?>
<svg
   xmlns:dc="http://purl.org/dc/elements/1.1/"
   xmlns:cc="http://creativecommons.org/ns#"
   xmlns:rdf="http://www.w3.org/1999/02/22-rdf-syntax-ns#"
   xmlns:svg="http://www.w3.org/2000/svg"
   xmlns="http://www.w3.org/2000/svg"
   xmlns:sodipodi="http://sodipodi.sourceforge.net/DTD/sodipodi-0.dtd"
   xmlns:inkscape="http://www.inkscape.org/namespaces/inkscape"
   enable-background="new 0 0 139 139"
   height="16"
   id="Setting"
   version="1.1"
   viewBox="0 0 16 16"
   width="16"
   xml:space="preserve"
   sodipodi:docname="iconfinder_Setting01_928428.svg"
   inkscape:version="0.92.3 (2405546, 2018-03-11)"><metadata
     id="metadata9"><rdf:RDF><cc:Work
         rdf:about=""><dc:format>image/svg+xml</dc:format><dc:type
           rdf:resource="http://purl.org/dc/dcmitype/StillImage" /><dc:title></dc:title></cc:Work></rdf:RDF></metadata><defs
     id="defs7" /><sodipodi:namedview
     pagecolor="#ffffff"
     bordercolor="#666666"
     borderopacity="1"
     objecttolerance="10"
     gridtolerance="10"
     guidetolerance="10"
     inkscape:pageopacity="0"
     inkscape:pageshadow="2"
     inkscape:window-width="1920"
     inkscape:window-height="1029"
     id="namedview5"
     showgrid="false"
     inkscape:zoom="19.208886"
     inkscape:cx="5.5823355"
     inkscape:cy="11.275137"
     inkscape:window-x="0"
     inkscape:window-y="0"
     inkscape:window-maximized="1"
     inkscape:current-layer="Setting" /><path
     d="m 11.092553,9.3536437 c 0.295563,-0.098603 0.611395,-0.1527349 0.940341,-0.1527349 1.638654,0 2.967557,1.3281922 2.967557,2.9674352 0,0.337531 -0.05711,0.661592 -0.160956,0.963951 l -2.010761,-2.010754 -1.897495,1.897491 1.983935,1.984054 c -0.278753,0.0868 -0.575032,0.133054 -0.882399,0.133414 -1.639131,0 -2.9676753,-1.328903 -2.9676753,-2.967796 0,-0.403943 0.080713,-0.788685 0.2271273,-1.139806 L 4.907898,6.6463564 C 4.612454,6.7449594 4.296503,6.7990813 3.967675,6.7990813 2.329022,6.7990813 1,5.4706585 1,3.8315257 1,3.4939948 1.05711,3.1700544 1.160956,2.8676946 L 3.171717,4.8784594 5.069331,2.9808483 3.085277,0.9969143 C 3.36403,0.9102115 3.660308,0.86362 3.967675,0.8635 c 1.639131,0 2.967676,1.3286628 2.967676,2.9676757 0,0.403933 -0.080713,0.7886854 -0.2271273,1.1396867 z"
     id="path2"
     inkscape:connector-curvature="0"
     style="stroke-width:0.11922686;fill:#69499e;fill-opacity:1" /></svg>