<?xml version="1.0" standalone="no"?>
<!DOCTYPE svg PUBLIC "-//W3C//DTD SVG 20010904//EN"
 "http://www.w3.org/TR/2001/REC-SVG-20010904/DTD/svg10.dtd">
<svg version="1.0" xmlns="http://www.w3.org/2000/svg"
 width="1000.000000pt" height="1000.000000pt" viewBox="0 0 1000.000000 1000.000000"
 preserveAspectRatio="xMidYMid meet">
<metadata>
Created by potrace 1.11, written by Peter Selinger 2001-2013
</metadata>
<g transform="translate(0.000000,1000.000000) scale(0.100000,-0.100000)"
fill="#000000" stroke="none">
<path d="M4738 9995 c-2 -1 -52 -6 -113 -9 -60 -4 -119 -9 -130 -11 -11 -2
-46 -7 -79 -10 -57 -6 -341 -50 -381 -59 -11 -2 -53 -12 -93 -20 -694 -149
-1382 -464 -1946 -890 -291 -220 -571 -482 -781 -730 -27 -32 -55 -64 -60 -70
-69 -74 -326 -429 -391 -541 -6 -11 -42 -69 -78 -130 -64 -105 -202 -373 -258
-500 -139 -314 -291 -798 -333 -1055 -3 -19 -10 -55 -15 -80 -5 -25 -12 -63
-15 -85 -3 -22 -10 -67 -15 -100 -5 -33 -12 -87 -15 -120 -4 -33 -8 -71 -11
-85 -25 -154 -25 -837 1 -1003 2 -12 6 -49 10 -82 9 -81 15 -126 20 -150 2
-11 7 -42 10 -70 4 -27 9 -58 11 -67 3 -10 7 -30 10 -45 33 -201 109 -484 201
-748 260 -749 748 -1490 1326 -2011 34 -31 80 -73 102 -94 54 -49 281 -229
341 -270 27 -19 51 -36 54 -40 3 -3 66 -46 140 -94 454 -299 965 -526 1483
-661 95 -24 183 -46 197 -49 14 -3 36 -7 50 -10 14 -3 50 -10 80 -16 30 -6 66
-12 80 -15 59 -12 301 -45 370 -50 41 -4 91 -9 110 -12 61 -8 621 -10 715 -2
207 18 257 24 405 45 177 25 421 77 610 130 496 140 955 349 1401 639 74 48
136 90 139 94 3 4 21 18 40 31 35 24 245 185 266 205 6 5 40 35 75 65 297 255
568 554 805 887 94 132 111 158 237 366 138 230 313 607 407 882 64 186 141
456 166 580 46 232 68 371 80 490 3 39 8 72 9 75 10 17 20 285 19 515 0 242
-5 363 -19 493 -3 23 -7 59 -9 80 -3 22 -7 54 -10 73 -6 39 -15 97 -22 149 -2
19 -6 42 -9 50 -2 8 -7 31 -10 50 -79 487 -305 1102 -579 1578 -110 191 -308
485 -408 607 -9 11 -45 54 -79 95 -434 528 -1001 976 -1624 1286 -158 79 -291
138 -415 184 -47 17 -94 35 -105 40 -11 5 -60 22 -110 39 -277 92 -592 168
-860 206 -11 2 -33 6 -50 8 -16 3 -82 11 -145 17 -63 6 -133 13 -155 16 -42 6
-641 14 -647 9z m1829 -4138 c-2 -1134 -6 -2075 -10 -2092 -3 -16 -9 -55 -12
-85 -4 -30 -9 -59 -12 -63 -3 -5 -7 -23 -10 -40 -2 -18 -15 -68 -28 -112 -146
-496 -461 -870 -925 -1097 -95 -46 -229 -101 -275 -112 -5 -2 -17 -5 -25 -9
-25 -9 -141 -39 -169 -43 -14 -2 -37 -7 -51 -10 -14 -3 -43 -8 -65 -10 -22 -3
-45 -7 -52 -9 -68 -24 -508 -24 -683 -1 -14 2 -50 7 -80 10 -75 9 -190 33
-280 57 -41 11 -82 22 -90 24 -36 8 -209 78 -274 112 -68 35 -210 122 -250
153 -334 263 -528 597 -596 1030 -6 41 -14 86 -16 100 -2 14 -7 85 -10 158
l-7 132 688 -2 689 -3 2 -67 c2 -74 12 -184 19 -208 2 -8 6 -26 9 -40 21 -114
91 -249 157 -303 99 -82 233 -118 414 -113 132 3 217 27 296 82 50 34 137 129
156 169 8 17 23 46 33 65 28 54 61 162 75 250 16 97 18 403 18 2162 l1 1977
683 0 683 0 -3 -2062z"/>
</g>
</svg>
